<?xml version="1.0" encoding="UTF-8" standalone="no"?>
<!DOCTYPE svg PUBLIC "-//W3C//DTD SVG 1.1//EN" "http://www.w3.org/Graphics/SVG/1.1/DTD/svg11.dtd">
<svg width="100%" height="100%" viewBox="0 0 735 735" version="1.1" xmlns="http://www.w3.org/2000/svg" xmlns:xlink="http://www.w3.org/1999/xlink" xml:space="preserve" xmlns:serif="http://www.serif.com/" style="fill-rule:evenodd;clip-rule:evenodd;stroke-linejoin:round;stroke-miterlimit:2;">
    <g transform="matrix(1,0,0,1,-357,-11)">
        <g transform="matrix(1.455446,0,0,1.455446,-343.069307,-341.217822)">
            <circle cx="733.5" cy="494.5" r="252.5" style="fill:url(#_Linear1);"/>
        </g>
        <g transform="matrix(1.138614,0,0,1.138614,-111.673267,-185.544554)">
            <circle cx="733.5" cy="494.5" r="252.5" style="fill:url(#_Linear2);"/>
        </g>
        <g transform="matrix(1,0,0,1,14.763532,0)">
            <g>
                <g transform="matrix(1.77851,0,0,1.77851,714.994632,602.685071)">
                    <path d="M2.246,-8.887C2.246,-9.961 2.448,-10.968 2.852,-11.909C3.255,-12.85 3.815,-13.678 4.531,-14.395C5.247,-15.111 6.076,-15.671 7.017,-16.074C7.957,-16.478 8.965,-16.68 10.039,-16.68C11.113,-16.68 12.121,-16.478 13.062,-16.074C14.002,-15.671 14.831,-15.111 15.547,-14.395C16.263,-13.678 16.823,-12.85 17.227,-11.909C17.63,-10.968 17.832,-9.961 17.832,-8.887C17.832,-7.995 17.69,-7.148 17.407,-6.348C17.124,-5.547 16.732,-4.821 16.23,-4.17L21.006,0.635C21.11,0.739 21.19,0.859 21.245,0.996C21.3,1.133 21.328,1.279 21.328,1.436C21.328,1.65 21.281,1.846 21.187,2.021C21.092,2.197 20.96,2.336 20.791,2.437C20.622,2.537 20.426,2.588 20.205,2.588C20.049,2.588 19.901,2.56 19.761,2.505C19.621,2.45 19.492,2.367 19.375,2.256L14.57,-2.559C13.932,-2.103 13.229,-1.745 12.461,-1.484C11.693,-1.224 10.885,-1.094 10.039,-1.094C8.965,-1.094 7.957,-1.296 7.017,-1.699C6.076,-2.103 5.247,-2.663 4.531,-3.379C3.815,-4.095 3.255,-4.924 2.852,-5.864C2.448,-6.805 2.246,-7.812 2.246,-8.887ZM3.916,-8.887C3.916,-8.04 4.074,-7.248 4.39,-6.509C4.705,-5.77 5.145,-5.12 5.708,-4.561C6.271,-4.001 6.922,-3.561 7.661,-3.242C8.4,-2.923 9.193,-2.764 10.039,-2.764C10.885,-2.764 11.678,-2.923 12.417,-3.242C13.156,-3.561 13.805,-4.001 14.365,-4.561C14.925,-5.12 15.365,-5.77 15.684,-6.509C16.003,-7.248 16.162,-8.04 16.162,-8.887C16.162,-9.733 16.003,-10.526 15.684,-11.265C15.365,-12.004 14.925,-12.655 14.365,-13.218C13.805,-13.781 13.156,-14.22 12.417,-14.536C11.678,-14.852 10.885,-15.01 10.039,-15.01C9.193,-15.01 8.4,-14.852 7.661,-14.536C6.922,-14.22 6.271,-13.781 5.708,-13.218C5.145,-12.655 4.705,-12.004 4.39,-11.265C4.074,-10.526 3.916,-9.733 3.916,-8.887Z" style="fill:url(#_Linear3);"/>
                </g>
                <g transform="matrix(1.783923,0,0,1.783923,661.010883,602.732126)">
                    <path d="M11.055,3.154C10.801,3.154 10.588,3.084 10.415,2.944C10.243,2.804 10.124,2.607 10.059,2.354L9.551,0.205C9.362,0.14 9.176,0.072 8.994,0C8.812,-0.072 8.639,-0.146 8.477,-0.225L6.602,0.928C6.387,1.058 6.167,1.113 5.942,1.094C5.718,1.074 5.518,0.977 5.342,0.801L4.092,-0.449C3.916,-0.625 3.817,-0.83 3.794,-1.064C3.771,-1.299 3.831,-1.52 3.975,-1.729L5.117,-3.594C5.039,-3.763 4.964,-3.936 4.893,-4.111C4.821,-4.287 4.759,-4.463 4.707,-4.639L2.539,-5.156C2.285,-5.215 2.09,-5.33 1.953,-5.503C1.816,-5.675 1.748,-5.889 1.748,-6.143L1.748,-7.91C1.748,-8.158 1.816,-8.368 1.953,-8.54C2.09,-8.713 2.285,-8.828 2.539,-8.887L4.688,-9.404C4.746,-9.606 4.813,-9.795 4.888,-9.971C4.963,-10.146 5.033,-10.312 5.098,-10.469L3.955,-12.363C3.818,-12.578 3.758,-12.796 3.774,-13.018C3.791,-13.239 3.89,-13.438 4.072,-13.613L5.342,-14.873C5.518,-15.049 5.713,-15.15 5.928,-15.176C6.143,-15.202 6.357,-15.15 6.572,-15.02L8.467,-13.848C8.63,-13.932 8.804,-14.012 8.989,-14.087C9.175,-14.162 9.362,-14.232 9.551,-14.297L10.059,-16.455C10.124,-16.702 10.243,-16.898 10.415,-17.041C10.588,-17.184 10.801,-17.256 11.055,-17.256L12.852,-17.256C13.105,-17.256 13.319,-17.184 13.491,-17.041C13.664,-16.898 13.779,-16.702 13.838,-16.455L14.346,-14.277C14.548,-14.212 14.738,-14.144 14.917,-14.072C15.096,-14.001 15.264,-13.923 15.42,-13.838L17.334,-15.02C17.542,-15.15 17.752,-15.199 17.964,-15.166C18.175,-15.133 18.372,-15.036 18.555,-14.873L19.834,-13.613C20.016,-13.438 20.114,-13.239 20.127,-13.018C20.14,-12.796 20.081,-12.578 19.951,-12.363L18.799,-10.469C18.864,-10.312 18.934,-10.146 19.009,-9.971C19.084,-9.795 19.154,-9.606 19.219,-9.404L21.367,-8.887C21.615,-8.828 21.808,-8.713 21.948,-8.54C22.088,-8.368 22.158,-8.158 22.158,-7.91L22.158,-6.143C22.158,-5.889 22.088,-5.675 21.948,-5.503C21.808,-5.33 21.615,-5.215 21.367,-5.156L19.199,-4.639C19.141,-4.463 19.077,-4.287 19.009,-4.111C18.94,-3.936 18.864,-3.763 18.779,-3.594L19.932,-1.729C20.075,-1.52 20.135,-1.299 20.112,-1.064C20.09,-0.83 19.99,-0.625 19.814,-0.449L18.555,0.801C18.379,0.977 18.179,1.074 17.954,1.094C17.729,1.113 17.513,1.058 17.305,0.928L15.42,-0.225C15.257,-0.146 15.085,-0.072 14.902,0C14.72,0.072 14.535,0.14 14.346,0.205L13.838,2.354C13.779,2.607 13.664,2.804 13.491,2.944C13.319,3.084 13.105,3.154 12.852,3.154L11.055,3.154ZM11.953,-3.604C12.585,-3.604 13.161,-3.758 13.682,-4.067C14.202,-4.377 14.619,-4.793 14.932,-5.317C15.244,-5.841 15.4,-6.419 15.4,-7.051C15.4,-7.682 15.244,-8.26 14.932,-8.784C14.619,-9.308 14.202,-9.725 13.682,-10.034C13.161,-10.343 12.585,-10.498 11.953,-10.498C11.315,-10.498 10.736,-10.343 10.215,-10.034C9.694,-9.725 9.279,-9.308 8.97,-8.784C8.66,-8.26 8.506,-7.682 8.506,-7.051C8.506,-6.419 8.66,-5.841 8.97,-5.317C9.279,-4.793 9.694,-4.377 10.215,-4.067C10.736,-3.758 11.315,-3.604 11.953,-3.604Z" style="fill:url(#_Linear4);"/>
                </g>
                <g transform="matrix(3.219685,0,0,3.219685,-1323.55444,-1262.572604)">
                    <g transform="matrix(1,0,0,1,595.188,578.742)">
                        <path d="M0.826,-2.578L5.836,0.229L5.836,-0.838L1.887,-3L1.887,-3.059L5.836,-5.35L5.836,-6.422L0.826,-3.404L0.826,-2.578Z" style="fill:url(#_Linear5);"/>
                        <path d="M7.652,1.811L10.535,-8.42L9.604,-8.42L6.721,1.811L7.652,1.811Z" style="fill:url(#_Linear6);"/>
                        <path d="M16.436,-3.404L11.42,-6.422L11.42,-5.35L15.381,-3.059L15.381,-3L11.42,-0.838L11.42,0.229L16.436,-2.578L16.436,-3.404Z" style="fill:url(#_Linear7);"/>
                    </g>
                </g>
                <g transform="matrix(9.79491,0,0,9.79491,766.49322,603.954466)">
                    <path d="M0.499,-0.041C0.499,-0.102 0.52,-0.155 0.563,-0.199C0.606,-0.242 0.659,-0.264 0.72,-0.264L1.148,-0.264L1.148,-2.586C1.148,-2.723 1.186,-2.826 1.261,-2.896C1.336,-2.966 1.438,-3.001 1.567,-3.001L5.072,-3.001C5.209,-3.001 5.313,-2.966 5.384,-2.896C5.455,-2.826 5.491,-2.723 5.491,-2.586L5.491,-0.264L5.919,-0.264C5.98,-0.264 6.032,-0.242 6.076,-0.199C6.119,-0.155 6.14,-0.102 6.14,-0.041C6.14,0.02 6.119,0.073 6.076,0.116C6.032,0.16 5.98,0.182 5.919,0.182L0.72,0.182C0.659,0.182 0.606,0.16 0.563,0.116C0.52,0.073 0.499,0.02 0.499,-0.041ZM1.463,-0.264L5.176,-0.264L5.176,-2.498C5.176,-2.56 5.16,-2.607 5.129,-2.639C5.097,-2.67 5.051,-2.686 4.988,-2.686L1.651,-2.686C1.588,-2.686 1.541,-2.67 1.51,-2.639C1.479,-2.607 1.463,-2.56 1.463,-2.498L1.463,-0.264Z" style="fill:url(#_Linear8);"/>
                </g>
            </g>
        </g>
        <g transform="matrix(6.512842,0,0,6.512842,-2861.989412,-2563.972888)">
            <g transform="matrix(1,0,0,1,522.6,471.055)">
                <text x="0px" y="0px" style="font-family:'BaiJamjuree-Bold', 'Bai Jamjuree';font-weight:700;font-size:12px;fill:rgb(74,48,28);">CWStudio</text>
            </g>
        </g>
        <g transform="matrix(1.146351,0,0,1.149988,-106.218541,-46.457699)">
            <g>
                <g>
                    <clipPath id="_clip9">
                        <path d="M723.222,319.672L711.091,319.672L684.758,216.402L718.321,216.402L744.416,319.672L732.218,319.672L733.934,325.731L745.947,325.731L749.252,338.809L751.007,338.809L754.18,325.731L766.085,325.731L767.8,319.672L755.651,319.672L758.246,308.975C765.705,278.044 773.383,247.552 780.841,216.402L794.681,216.402L794.681,259.365L800.741,259.365L800.741,216.402L814.404,216.402L840.499,319.672L828.218,319.672L829.934,325.731L842.03,325.731L845.335,338.809L847.09,338.809C848.118,334.438 849.152,330.08 850.19,325.731L862.085,325.731L863.8,319.672L851.64,319.672C859.892,285.288 868.408,251.392 876.924,216.402L910.268,216.402L884.784,319.672L872.797,319.672L871.081,325.731L883.289,325.731L864.201,403.084L828.444,403.084L808.682,325.731L820.938,325.731L819.222,319.672L807.134,319.672L800.741,294.645L800.741,268.021L794.681,268.021L794.681,295.255L788.666,319.672L776.797,319.672L775.081,325.731L787.174,325.731L768.118,403.084L732.361,403.084L712.636,325.731L724.938,325.731L723.222,319.672ZM554.477,304.672L541.292,304.672L541.292,270.805C541.292,240.752 565.642,216.402 595.476,216.402L604.681,216.402L604.681,229.365L610.741,229.365L610.741,216.402L618.948,216.402C647.466,216.402 667.867,238.12 670.499,265.979L636.059,265.979C634.084,256.327 629.477,248.869 618.728,248.869L610.741,248.869L610.741,238.021L604.681,238.021L604.681,248.869L595.695,248.869C582.972,248.869 574.855,259.618 574.855,272.56L574.855,304.672L563.133,304.672L563.133,310.731L574.855,310.731L574.855,346.926C574.855,359.869 582.972,370.618 595.695,370.618L604.681,370.618L604.681,383.441L610.741,383.441L610.741,370.618L618.728,370.618C629.258,370.618 633.645,363.598 635.839,354.165L670.499,354.165C667.867,381.586 647.246,403.084 618.948,403.084L610.741,403.084L610.741,392.097L604.681,392.097L604.681,403.084L595.476,403.084C565.642,403.084 541.292,378.734 541.292,348.9L541.292,310.731L554.477,310.731L554.477,304.672Z"/>
                    </clipPath>
                    <g clip-path="url(#_clip9)">
                        <g id="_Image8_" serif:id="_Image8" transform="matrix(0.872333,0,0,0.869574,541.29193,216.401947)">
                            <rect x="0" y="0" width="423" height="215" style="fill:url(#_Linear10);"/>
                        </g>
                    </g>
                </g>
            </g>
        </g>
    </g>
    <defs>
        <linearGradient id="_Linear1" x1="0" y1="0" x2="1" y2="0" gradientUnits="userSpaceOnUse" gradientTransform="matrix(338.727891,354.530612,-354.530612,338.727891,566.884354,318.952381)"><stop offset="0" style="stop-color:rgb(245,237,222);stop-opacity:1"/><stop offset="1" style="stop-color:rgb(201,162,118);stop-opacity:1"/></linearGradient>
        <linearGradient id="_Linear2" x1="0" y1="0" x2="1" y2="0" gradientUnits="userSpaceOnUse" gradientTransform="matrix(447.913043,488.313043,-488.313043,447.913043,544.234783,289.426087)"><stop offset="0" style="stop-color:rgb(250,244,234);stop-opacity:1"/><stop offset="1" style="stop-color:rgb(235,222,202);stop-opacity:1"/></linearGradient>
        <linearGradient id="_Linear3" x1="0" y1="0" x2="1" y2="0" gradientUnits="userSpaceOnUse" gradientTransform="matrix(123.136791,0.562268,-0.562268,123.136791,-62.112345,-9.943757)"><stop offset="0" style="stop-color:rgb(122,82,48);stop-opacity:1"/><stop offset="1" style="stop-color:rgb(74,48,28);stop-opacity:1"/></linearGradient>
        <linearGradient id="_Linear4" x1="0" y1="0" x2="1" y2="0" gradientUnits="userSpaceOnUse" gradientTransform="matrix(122.763116,0.560562,-0.560562,122.763116,634.124225,580.943893)"><stop offset="0" style="stop-color:rgb(122,82,48);stop-opacity:1"/><stop offset="1" style="stop-color:rgb(74,48,28);stop-opacity:1"/></linearGradient>
        <linearGradient id="_Linear5" x1="0" y1="0" x2="1" y2="0" gradientUnits="userSpaceOnUse" gradientTransform="matrix(68.019067,0.310589,-0.310589,68.019067,598.841623,573.83637)"><stop offset="0" style="stop-color:rgb(122,82,48);stop-opacity:1"/><stop offset="1" style="stop-color:rgb(74,48,28);stop-opacity:1"/></linearGradient>
        <linearGradient id="_Linear6" x1="0" y1="0" x2="1" y2="0" gradientUnits="userSpaceOnUse" gradientTransform="matrix(68.019067,0.310589,-0.310589,68.019067,598.841623,573.83637)"><stop offset="0" style="stop-color:rgb(122,82,48);stop-opacity:1"/><stop offset="1" style="stop-color:rgb(74,48,28);stop-opacity:1"/></linearGradient>
        <linearGradient id="_Linear7" x1="0" y1="0" x2="1" y2="0" gradientUnits="userSpaceOnUse" gradientTransform="matrix(68.019067,0.310589,-0.310589,68.019067,598.841623,573.83637)"><stop offset="0" style="stop-color:rgb(122,82,48);stop-opacity:1"/><stop offset="1" style="stop-color:rgb(74,48,28);stop-opacity:1"/></linearGradient>
        <linearGradient id="_Linear8" x1="0" y1="0" x2="1" y2="0" gradientUnits="userSpaceOnUse" gradientTransform="matrix(22.35855,0.102094,-0.102094,22.35855,759.895232,589.829838)"><stop offset="0" style="stop-color:rgb(122,82,48);stop-opacity:1"/><stop offset="1" style="stop-color:rgb(74,48,28);stop-opacity:1"/></linearGradient>
        <linearGradient id="_Linear10" x1="0" y1="0" x2="1" y2="0" gradientUnits="userSpaceOnUse" gradientTransform="matrix(423,215,-215,423,0,0)"><stop offset="0" style="stop-color:rgb(122,82,48);stop-opacity:1"/><stop offset="1" style="stop-color:rgb(74,48,28);stop-opacity:1"/></linearGradient>
    </defs>
</svg>
